# xmcd
# 
# Track frame offsets:
#     150
#     16929
#     34802
#     74324
#     93040
#     113573
#     132594
#     149587
#     167714
#     190566
#     206823
#     224909
#     242108
#     262602
#     281620
# 
# Disc length: 3957
# 
# Revision: 0
# Processed by: cddbd v1.5.2PL0 Copyright (c) Steve Scherf et al.
# Submitted via: fre:ac v1.0.31
# 
DISCID=dd0f730f
DTITLE=Various Artist - DAS GROSSE SCHLAGER MEDLEY - CD2
DYEAR=0
DGENRE=
TTITLE0=CHRIS ROBERTS - CHRIS ROBERTS Medley
TTITLE1=SILVIA KAUFMANN - SILVIA KAUFMANN Party Mix
TTITLE2=RINGO'S BINGO'S - CCR Medley (Creedence Clearwater Revival)
TTITLE3=RANDOLPH ROSE - RANDOLPH ROSE Hit Medley
TTITLE4=ERIK SILVESTER - ERIK SILVESTER Medley
TTITLE5=MARTIN MENTOS - MARTIN MENTOS Medley
TTITLE6=IRENA - Der Griechenland Hit Mix
TTITLE7=NINA AND MIKE - NINA AND MIKE Hit Medley
TTITLE8=CRAZY CATS - Trini Lopez Medley
TTITLE9=PETER WACKEL - Noch 'Ne Runde
TTITLE10=SIMONE GOERTZ - SIMONE GOERTZ Hit Medley
TTITLE11=RICKY SHAYNE - RICKY SHAYNE Hit Mix
TTITLE12=SIW MALMKVIST - SIW MALMKVIST Hit Medley
TTITLE13=MALTE MALLOTZE - MALTE MALLOTZE Medley
TTITLE14=DIANA LEONHARDT - Jive Baby Jive (Connie Francis Medley)
EXTD=
EXTT0=
EXTT1=
EXTT2=
EXTT3=
EXTT4=
EXTT5=
EXTT6=
EXTT7=
EXTT8=
EXTT9=
EXTT10=
EXTT11=
EXTT12=
EXTT13=
EXTT14=
PLAYORDER=
